<?xml version="1.0" standalone="no"?>
<!DOCTYPE svg PUBLIC "-//W3C//DTD SVG 20010904//EN"
 "http://www.w3.org/TR/2001/REC-SVG-20010904/DTD/svg10.dtd">
<svg version="1.0" xmlns="http://www.w3.org/2000/svg"
 width="512.000000pt" height="512.000000pt" viewBox="0 0 512.000000 512.000000"
 preserveAspectRatio="xMidYMid meet">

<g transform="translate(0.000000,512.000000) scale(0.100000,-0.100000)"
fill="#000000" stroke="none">
<path d="M2460 5114 c-442 -54 -790 -380 -865 -811 -11 -60 -15 -158 -15 -330
l0 -244 25 -24 c31 -32 69 -32 100 0 l25 24 0 243 c0 198 4 260 19 334 44 212
175 404 359 525 141 92 285 134 462 132 238 -3 427 -87 595 -265 75 -80 123
-153 161 -246 57 -141 57 -148 62 -574 l3 -398 -75 0 -76 0 0 366 c0 413 -5
452 -70 590 -47 97 -148 211 -242 272 -222 145 -514 145 -736 0 -88 -57 -194
-174 -237 -261 -70 -143 -75 -185 -75 -599 l0 -368 -277 0 c-159 0 -294 -5
-315 -10 -62 -18 -129 -70 -161 -127 -23 -42 -30 -70 -34 -133 l-6 -80 -266 0
-267 0 -13 37 c-18 50 -83 117 -139 144 -64 31 -169 32 -232 3 -104 -49 -164
-144 -164 -259 0 -109 55 -197 157 -252 47 -26 188 -25 242 2 53 26 121 97
135 140 l12 35 269 0 269 0 0 -345 0 -345 -275 0 -274 0 -60 112 c-89 170 -60
153 -266 153 -174 0 -177 0 -196 -24 -25 -30 -24 -62 2 -95 20 -26 22 -26 154
-26 l134 0 63 -123 c43 -83 71 -126 88 -134 18 -9 108 -13 328 -13 l302 0 0
-210 0 -210 -268 0 -268 0 -12 33 c-18 51 -77 113 -134 141 -100 50 -236 30
-316 -47 -58 -55 -86 -121 -86 -202 1 -84 17 -128 74 -189 86 -93 211 -117
323 -62 61 30 120 90 139 143 l12 33 268 0 268 0 0 -118 c0 -75 5 -137 15
-167 l14 -48 -109 -116 c-60 -64 -216 -223 -347 -354 l-239 -238 -43 16 c-60
21 -156 19 -207 -4 -59 -27 -112 -77 -142 -135 -31 -61 -36 -167 -10 -228 23
-53 92 -123 146 -150 68 -33 169 -31 238 4 58 30 108 83 135 142 23 51 25 147
4 207 l-16 43 349 349 349 349 53 -16 c36 -11 93 -16 172 -16 l118 0 0 -268 0
-268 -33 -12 c-53 -19 -113 -78 -143 -139 -55 -112 -31 -237 62 -323 61 -57
105 -73 189 -74 81 0 147 28 202 86 77 80 97 216 47 316 -28 57 -90 116 -141
134 l-33 12 0 268 0 268 220 0 220 0 0 -184 0 -185 26 -20 c31 -24 43 -26 78
-10 38 18 46 58 46 235 l0 164 260 0 260 0 0 -70 0 -70 -118 -59 c-65 -33
-125 -67 -133 -77 -10 -12 -15 -51 -17 -139 l-4 -123 -39 -17 c-50 -23 -103
-75 -131 -128 -18 -33 -23 -59 -23 -122 0 -71 3 -86 31 -135 136 -242 496
-165 521 110 11 113 -53 222 -159 276 l-49 25 3 80 3 81 120 63 c66 35 125 72
132 81 9 12 13 53 13 121 l0 103 210 0 210 0 0 -269 0 -269 -27 -10 c-96 -34
-173 -147 -173 -252 0 -116 56 -207 158 -257 174 -86 375 28 399 225 12 107
-55 225 -158 278 l-49 24 0 265 0 265 117 0 c78 0 136 5 176 17 l59 16 47 -49
c26 -27 181 -185 345 -351 l297 -301 -15 -46 c-46 -135 11 -276 139 -341 176
-90 384 26 402 225 15 160 -114 300 -275 300 -34 0 -79 -7 -99 -15 -19 -8 -39
-15 -43 -15 -4 0 -163 159 -353 353 l-346 354 14 39 c9 25 14 84 15 167 l0
127 268 0 268 0 21 -43 c32 -66 69 -103 130 -134 176 -86 383 32 400 227 15
161 -115 301 -277 299 -114 -1 -197 -49 -245 -142 l-30 -57 -267 0 -268 0 0
210 0 210 98 0 c57 0 107 5 121 13 15 7 48 58 88 135 l65 122 83 0 83 0 12
-34 c26 -80 131 -158 231 -172 101 -14 218 48 271 143 104 185 -30 413 -242
413 -110 0 -212 -64 -255 -160 l-18 -40 -119 0 c-144 0 -139 4 -221 -157 l-58
-113 -69 0 -70 0 0 220 0 221 -25 24 c-29 30 -64 32 -96 6 l-24 -19 -5 -715
c-5 -697 -5 -715 -25 -737 -46 -52 4 -50 -1297 -50 -1135 0 -1215 1 -1248 18
-20 9 -43 32 -53 52 -16 33 -17 96 -15 992 l3 958 33 32 32 33 1236 3 c1141 2
1238 1 1271 -15 50 -23 63 -62 63 -183 0 -94 2 -103 25 -126 l25 -24 576 2
576 3 19 24 c25 30 24 62 -2 95 l-20 26 -525 0 -524 0 0 63 c0 89 -24 152 -80
207 -65 66 -113 80 -276 80 l-133 0 -3 408 c-5 449 -6 463 -78 635 -115 276
-376 495 -675 568 -79 19 -256 31 -325 23z m205 -459 c200 -42 363 -200 410
-396 12 -51 15 -138 15 -421 l0 -358 -530 0 -530 0 0 358 c0 283 3 370 15 421
46 193 210 353 405 395 85 19 130 19 215 1z m-2306 -1494 c45 -24 65 -108 38
-161 -17 -34 -74 -70 -109 -70 -75 0 -128 55 -128 134 0 99 101 149 199 97z
m4538 -568 c50 -23 78 -87 63 -142 -15 -58 -59 -91 -122 -91 -43 0 -54 4 -83
33 -64 64 -51 161 25 199 44 22 72 23 117 1z m-4531 -856 c86 -78 34 -217 -81
-217 -74 0 -125 49 -125 120 0 81 47 129 128 130 34 0 49 -6 78 -33z m4533 19
c60 -32 85 -124 48 -180 -43 -65 -148 -74 -199 -17 -94 105 26 261 151 197z
m-4527 -1383 c41 -41 49 -107 19 -156 -25 -41 -58 -57 -117 -57 -39 0 -51 5
-80 34 -29 29 -34 40 -34 83 1 26 6 58 14 71 38 69 141 82 198 25z m1365 -7
c38 -41 44 -95 18 -146 -29 -56 -126 -79 -181 -44 -76 50 -70 178 10 219 51
26 114 14 153 -29z m971 24 c70 -43 78 -136 17 -197 -29 -29 -39 -33 -85 -33
-46 0 -56 4 -85 33 -43 43 -52 79 -34 131 27 77 117 109 187 66z m828 4 c19
-9 42 -30 51 -47 18 -35 19 -96 3 -127 -18 -33 -70 -60 -118 -60 -37 0 -50 6
-77 33 -43 43 -52 79 -34 131 26 74 102 104 175 70z m1359 0 c19 -9 42 -28 51
-42 20 -31 23 -97 5 -130 -19 -35 -70 -62 -119 -62 -84 0 -142 93 -108 173 28
67 103 94 171 61z"/>
<path d="M2190 2884 c-184 -90 -343 -173 -352 -185 -17 -19 -18 -55 -18 -424
0 -369 1 -404 18 -423 19 -22 696 -352 722 -352 27 0 703 329 723 352 16 19
17 54 17 424 l0 403 -22 24 c-33 36 -683 347 -722 346 -18 0 -166 -67 -366
-165z m529 -133 c102 -50 189 -97 193 -104 25 -39 10 -50 -172 -139 l-178 -86
-242 116 -241 117 208 101 c153 75 213 99 228 94 11 -4 103 -49 204 -99z
m-489 -343 l250 -121 0 -293 0 -293 -132 63 c-73 35 -188 90 -255 122 l-123
59 0 293 c0 160 2 292 5 292 3 0 118 -55 255 -122z m913 -459 c-5 -4 -119 -62
-255 -128 l-248 -120 0 293 0 293 253 121 252 121 3 -286 c1 -158 -1 -290 -5
-294z"/>
</g>
</svg>
